{
    "asset" : {
        "generator" : "Khronos glTF Blender I/O v1.1.46",
        "version" : "2.0"
    },
    "scene" : 0,
    "scenes" : [
        {
            "extras" : {
                "glTF2ExportSettings" : {
                    "export_apply" : 1,
                    "export_cameras" : 1,
                    "export_current_frame" : 0,
                    "export_extras" : 1,
                    "export_format" : "GLTF_SEPARATE",
                    "export_image_format" : "PNG",
                    "export_lights" : 1,
                    "export_selected" : 1,
                    "export_tangents" : 1,
                    "export_texture_dir" : "bee_texture"
                }
            },
            "name" : "Scene",
            "nodes" : [
                0
            ]
        }
    ],
    "nodes" : [
        {
            "mesh" : 0,
            "name" : "Bee",
            "rotation" : [
                0,
                0.720864474773407,
                0,
                -0.6930760741233826
            ],
            "scale" : [
                0.04000008851289749,
                0.04000001400709152,
                0.04000001400709152
            ],
            "translation" : [
                0,
                -0.30918461084365845,
                0
            ]
        }
    ],
    "materials" : [
        {
            "doubleSided" : true,
            "emissiveFactor" : [
                0,
                0,
                0
            ],
            "name" : "bee_12_04bee",
            "normalTexture" : {
                "index" : 0,
                "texCoord" : 0
            },
            "pbrMetallicRoughness" : {
                "baseColorTexture" : {
                    "index" : 1,
                    "texCoord" : 0
                },
                "metallicRoughnessTexture" : {
                    "index" : 2,
                    "texCoord" : 0
                }
            }
        }
    ],
    "meshes" : [
        {
            "name" : "Bee_bee_12_04:bee_0",
            "primitives" : [
                {
                    "attributes" : {
                        "POSITION" : 0,
                        "NORMAL" : 1,
                        "TANGENT" : 2,
                        "TEXCOORD_0" : 3,
                        "TEXCOORD_1" : 4
                    },
                    "indices" : 5,
                    "material" : 0
                }
            ]
        }
    ],
    "textures" : [
        {
            "source" : 0
        },
        {
            "source" : 1
        },
        {
            "source" : 2
        }
    ],
    "images" : [
        {
            "mimeType" : "image/png",
            "name" : "bee_12_04bee_normal",
            "uri" : "bee_texture/bee_12_04bee_normal.png"
        },
        {
            "mimeType" : "image/png",
            "name" : "bee_12_04bee_baseColor",
            "uri" : "bee_texture/bee_12_04bee_baseColor.png"
        },
        {
            "mimeType" : "image/png",
            "name" : "bee_12_04bee_metallicRoughness",
            "uri" : "bee_texture/bee_12_04bee_metallicRoughness.png"
        }
    ],
    "accessors" : [
        {
            "bufferView" : 0,
            "componentType" : 5126,
            "count" : 14763,
            "max" : [
                14.37548828125,
                30.95926284790039,
                20.56439208984375
            ],
            "min" : [
                -14.37548828125,
                -0.0408199280500412,
                -17.057567596435547
            ],
            "type" : "VEC3"
        },
        {
            "bufferView" : 1,
            "componentType" : 5126,
            "count" : 14763,
            "type" : "VEC3"
        },
        {
            "bufferView" : 2,
            "componentType" : 5126,
            "count" : 14763,
            "type" : "VEC4"
        },
        {
            "bufferView" : 3,
            "componentType" : 5126,
            "count" : 14763,
            "type" : "VEC2"
        },
        {
            "bufferView" : 4,
            "componentType" : 5126,
            "count" : 14763,
            "type" : "VEC2"
        },
        {
            "bufferView" : 5,
            "componentType" : 5123,
            "count" : 68316,
            "type" : "SCALAR"
        }
    ],
    "bufferViews" : [
        {
            "buffer" : 0,
            "byteLength" : 177156,
            "byteOffset" : 0
        },
        {
            "buffer" : 0,
            "byteLength" : 177156,
            "byteOffset" : 177156
        },
        {
            "buffer" : 0,
            "byteLength" : 236208,
            "byteOffset" : 354312
        },
        {
            "buffer" : 0,
            "byteLength" : 118104,
            "byteOffset" : 590520
        },
        {
            "buffer" : 0,
            "byteLength" : 118104,
            "byteOffset" : 708624
        },
        {
            "buffer" : 0,
            "byteLength" : 136632,
            "byteOffset" : 826728
        }
    ],
    "buffers" : [
        {
            "byteLength" : 963360,
            "uri" : "Abelha.bin"
        }
    ]
}
