{
    "asset" : {
        "generator" : "Khronos glTF Blender I/O v1.1.46",
        "version" : "2.0"
    },
    "scene" : 0,
    "scenes" : [
        {
            "name" : "Scene",
            "nodes" : [
                0,
                1,
                2,
                3
            ]
        }
    ],
    "nodes" : [
        {
            "mesh" : 0,
            "name" : "Butterfly",
            "rotation" : [
                -0.7071068286895752,
                0,
                0,
                0.7071067094802856
            ],
            "scale" : [
                0.05000000074505806,
                0.05000000074505806,
                0.05000000074505806
            ]
        },
        {
            "mesh" : 1,
            "name" : "Cylinder.008",
            "rotation" : [
                -0.08596567809581757,
                0.13906322419643402,
                0.5413693189620972,
                0.8247367143630981
            ],
            "scale" : [
                -0.0799618735909462,
                0.07996183633804321,
                0.07996184378862381
            ],
            "translation" : [
                1.0887346267700195,
                5.833946228027344,
                -0.23848456144332886
            ]
        },
        {
            "mesh" : 2,
            "name" : "Plane.008",
            "rotation" : [
                0.3826834559440613,
                0,
                0,
                0.9238795042037964
            ],
            "scale" : [
                0.08102604746818542,
                0.09134504944086075,
                0.09134504944086075
            ],
            "translation" : [
                0.07659214735031128,
                5.910026550292969,
                -0.25263646245002747
            ]
        },
        {
            "name" : "Text.008",
            "rotation" : [
                0.3826834559440613,
                0,
                0,
                0.9238795042037964
            ],
            "scale" : [
                0.07996188849210739,
                0.07996188849210739,
                0.07996188849210739
            ],
            "translation" : [
                0.007157742977142334,
                5.8856682777404785,
                -0.21910186111927032
            ]
        }
    ],
    "materials" : [
        {
            "emissiveFactor" : [
                0,
                0,
                0
            ],
            "name" : "wire_115115115",
            "pbrMetallicRoughness" : {
                "baseColorFactor" : [
                    0.7799999713897705,
                    0.7799999713897705,
                    0.7799999713897705,
                    1
                ],
                "baseColorTexture" : {
                    "index" : 0,
                    "texCoord" : 0
                },
                "metallicFactor" : 0,
                "roughnessFactor" : 0.6000000238418579
            }
        },
        {
            "doubleSided" : true,
            "emissiveFactor" : [
                1,
                1,
                1
            ],
            "name" : "Material.008",
            "pbrMetallicRoughness" : {
                "baseColorFactor" : [
                    1,
                    1,
                    1,
                    1
                ],
                "metallicFactor" : 0,
                "roughnessFactor" : 0.5
            }
        },
        {
            "doubleSided" : true,
            "emissiveFactor" : [
                0,
                0,
                0
            ],
            "name" : "Material.007",
            "pbrMetallicRoughness" : {
                "baseColorFactor" : [
                    0,
                    0,
                    0,
                    1
                ],
                "metallicFactor" : 0,
                "roughnessFactor" : 0.5
            }
        },
        {
            "doubleSided" : true,
            "emissiveFactor" : [
                0,
                0,
                0
            ],
            "name" : "Material.001",
            "pbrMetallicRoughness" : {
                "baseColorFactor" : [
                    0,
                    0,
                    0,
                    1
                ],
                "metallicFactor" : 0,
                "roughnessFactor" : 0.5
            }
        }
    ],
    "meshes" : [
        {
            "name" : "Mesh_0",
            "primitives" : [
                {
                    "attributes" : {
                        "POSITION" : 0,
                        "NORMAL" : 1,
                        "TEXCOORD_0" : 2
                    },
                    "indices" : 3,
                    "material" : 0
                }
            ]
        },
        {
            "name" : "Cylinder.009",
            "primitives" : [
                {
                    "attributes" : {
                        "POSITION" : 4,
                        "NORMAL" : 5,
                        "TEXCOORD_0" : 6
                    },
                    "indices" : 7,
                    "material" : 1
                },
                {
                    "attributes" : {
                        "POSITION" : 8,
                        "NORMAL" : 9,
                        "TEXCOORD_0" : 10
                    },
                    "indices" : 11,
                    "material" : 2
                }
            ]
        },
        {
            "name" : "Plane.009",
            "primitives" : [
                {
                    "attributes" : {
                        "POSITION" : 12,
                        "NORMAL" : 13,
                        "TEXCOORD_0" : 14
                    },
                    "indices" : 15,
                    "material" : 3
                }
            ]
        }
    ],
    "textures" : [
        {
            "source" : 0
        }
    ],
    "images" : [
        {
            "mimeType" : "image/jpeg",
            "name" : "wire_115115115_baseColor",
            "uri" : "wire_115115115_baseColor.jpg"
        }
    ],
    "accessors" : [
        {
            "bufferView" : 0,
            "componentType" : 5126,
            "count" : 44166,
            "max" : [
                86.7665023803711,
                73.44670104980469,
                146.9427947998047
            ],
            "min" : [
                -4.605500221252441,
                -65.18900299072266,
                89.95390319824219
            ],
            "type" : "VEC3"
        },
        {
            "bufferView" : 1,
            "componentType" : 5126,
            "count" : 44166,
            "type" : "VEC3"
        },
        {
            "bufferView" : 2,
            "componentType" : 5126,
            "count" : 44166,
            "type" : "VEC2"
        },
        {
            "bufferView" : 3,
            "componentType" : 5123,
            "count" : 192780,
            "type" : "SCALAR"
        },
        {
            "bufferView" : 4,
            "componentType" : 5126,
            "count" : 192,
            "max" : [
                0.03500000014901161,
                2,
                0.03500000014901161
            ],
            "min" : [
                -0.03500000014901161,
                -2,
                -0.03500000014901161
            ],
            "type" : "VEC3"
        },
        {
            "bufferView" : 5,
            "componentType" : 5126,
            "count" : 192,
            "type" : "VEC3"
        },
        {
            "bufferView" : 6,
            "componentType" : 5126,
            "count" : 192,
            "type" : "VEC2"
        },
        {
            "bufferView" : 7,
            "componentType" : 5123,
            "count" : 372,
            "type" : "SCALAR"
        },
        {
            "bufferView" : 8,
            "componentType" : 5126,
            "count" : 1984,
            "max" : [
                0.15000009536743164,
                -1.8911614418029785,
                0.1499999463558197
            ],
            "min" : [
                -0.14999991655349731,
                -2.1911613941192627,
                -0.15000003576278687
            ],
            "type" : "VEC3"
        },
        {
            "bufferView" : 9,
            "componentType" : 5126,
            "count" : 1984,
            "type" : "VEC3"
        },
        {
            "bufferView" : 10,
            "componentType" : 5126,
            "count" : 1984,
            "type" : "VEC2"
        },
        {
            "bufferView" : 11,
            "componentType" : 5123,
            "count" : 2880,
            "type" : "SCALAR"
        },
        {
            "bufferView" : 12,
            "componentType" : 5126,
            "count" : 160,
            "max" : [
                11.153864860534668,
                0.07169123739004135,
                1
            ],
            "min" : [
                -1,
                0,
                -1
            ],
            "type" : "VEC3"
        },
        {
            "bufferView" : 13,
            "componentType" : 5126,
            "count" : 160,
            "type" : "VEC3"
        },
        {
            "bufferView" : 14,
            "componentType" : 5126,
            "count" : 160,
            "type" : "VEC2"
        },
        {
            "bufferView" : 15,
            "componentType" : 5123,
            "count" : 348,
            "type" : "SCALAR"
        }
    ],
    "bufferViews" : [
        {
            "buffer" : 0,
            "byteLength" : 529992,
            "byteOffset" : 0
        },
        {
            "buffer" : 0,
            "byteLength" : 529992,
            "byteOffset" : 529992
        },
        {
            "buffer" : 0,
            "byteLength" : 353328,
            "byteOffset" : 1059984
        },
        {
            "buffer" : 0,
            "byteLength" : 385560,
            "byteOffset" : 1413312
        },
        {
            "buffer" : 0,
            "byteLength" : 2304,
            "byteOffset" : 1798872
        },
        {
            "buffer" : 0,
            "byteLength" : 2304,
            "byteOffset" : 1801176
        },
        {
            "buffer" : 0,
            "byteLength" : 1536,
            "byteOffset" : 1803480
        },
        {
            "buffer" : 0,
            "byteLength" : 744,
            "byteOffset" : 1805016
        },
        {
            "buffer" : 0,
            "byteLength" : 23808,
            "byteOffset" : 1805760
        },
        {
            "buffer" : 0,
            "byteLength" : 23808,
            "byteOffset" : 1829568
        },
        {
            "buffer" : 0,
            "byteLength" : 15872,
            "byteOffset" : 1853376
        },
        {
            "buffer" : 0,
            "byteLength" : 5760,
            "byteOffset" : 1869248
        },
        {
            "buffer" : 0,
            "byteLength" : 1920,
            "byteOffset" : 1875008
        },
        {
            "buffer" : 0,
            "byteLength" : 1920,
            "byteOffset" : 1876928
        },
        {
            "buffer" : 0,
            "byteLength" : 1280,
            "byteOffset" : 1878848
        },
        {
            "buffer" : 0,
            "byteLength" : 696,
            "byteOffset" : 1880128
        }
    ],
    "buffers" : [
        {
            "byteLength" : 1880824,
            "uri" : "Borboleta.bin"
        }
    ]
}
